# xmcd
#
# Track frame offsets:
#	150
#	9723
#	22617
#	38481
#	48837
#	63918
#	79512
#	95052
#	106110
#	120462
#	134571
#	146358
#	162627
#	177681
#	190953
#	204468
#	216093
#	230553
#	243852
#	260202
#	276174
#	294981
# Disc length: 4221 seconds
# Revision: 1
# Processed by: cddbd v1.5.2PL0 Copyright (c) Steve Scherf et al.
#
# Submitted via: libkcddb 0.31
#
DISCID=38107b16
DTITLE=Олег Погудин - Концерт - Избранное 1
DYEAR=2005
DGENRE=????
TTITLE0=И тихо, и ясно
TTITLE1=Ночь светла
TTITLE2=Колыбельная
TTITLE3=Канареечка
TTITLE4=Забыли вы
TTITLE5=У зари-то у зореньки
TTITLE6=Очаровательные глазки
TTITLE7=Несе Галя воду
TTITLE8=Не уходи, побудь со мною
TTITLE9=Коробейники
TTITLE10=Танго магнолия
TTITLE11=Спи, мое бедное сердце
TTITLE12=Грустить не надо
TTITLE13=Застольная Волховского фронта
TTITLE14=Цветок
TTITLE15=Bella ciao
TTITLE16=Speak softly love, love theme from 'the God Father'
TTITLE17=Sous le ciel de Paris
TTITLE18=Non, je ne regrette rein
TTITLE19=Любовь останется
TTITLE20=Гори, гори, моя звезда
TTITLE21=Я Вас люблю
EXTD=
EXTT0=
EXTT1=
EXTT2=
EXTT3=
EXTT4=
EXTT5=
EXTT6=
EXTT7=
EXTT8=
EXTT9=
EXTT10=
EXTT11=
EXTT12=
EXTT13=
EXTT14=
EXTT15=
EXTT16=
EXTT17=
EXTT18=
EXTT19=
EXTT20=
EXTT21=
PLAYORDER=
